<svg id="Capa_1" enable-background="new 0 0 512.004 512.004" height="512" viewBox="0 0 512.004 512.004" width="512" xmlns="http://www.w3.org/2000/svg"><path d="m486.637 16.09c-2.173-.752-54.056-18.367-126.539-15.842-7.894.275-15.73.782-23.503 1.515 12.504 40.759 34.815 77.9 65.281 108.366s67.606 52.778 108.366 65.282c.733-7.774 1.24-15.61 1.515-23.504 2.525-72.483-15.091-124.366-15.842-126.539l-2.383-6.895z"/><path d="m110.128 401.876c-30.467-30.467-67.607-52.779-108.365-65.282-.733 7.774-1.24 15.61-1.515 23.504-2.525 72.482 15.09 124.366 15.842 126.539l2.383 6.895 6.895 2.383c2.173.751 54.057 18.366 126.539 15.842 7.894-.275 15.73-.782 23.504-1.515-12.504-40.759-34.816-77.899-65.283-108.366z"/><path d="m380.662 131.341c-35.129-35.129-60.531-78.232-74.164-125.538-23.492 4.102-46.289 10.358-68.168 18.748-47.767 18.317-91.196 46.814-129.081 84.698s-66.382 81.314-84.698 129.081c-8.39 21.879-14.646 44.675-18.748 68.168 47.305 13.632 90.408 39.035 125.538 74.164s60.532 78.233 74.164 125.538c23.492-4.102 46.289-10.358 68.168-18.748 47.767-18.316 91.196-46.813 129.081-84.698s66.382-81.314 84.698-129.081c8.39-21.879 14.646-44.675 18.748-68.167-47.306-13.633-90.409-39.036-125.538-74.165zm-209.572 188.36 21.239-21.239-21.239-21.239 21.213-21.213 21.239 21.239 21.247-21.247-21.239-21.239 21.213-21.213 21.239 21.239 21.247-21.247-21.239-21.239 21.213-21.213 21.239 21.239 21.239-21.239 21.213 21.213-21.239 21.239 21.239 21.239-21.213 21.213-21.239-21.239-21.247 21.247 21.239 21.239-21.213 21.213-21.239-21.239-21.247 21.247 21.239 21.239-21.213 21.213-21.239-21.239-21.239 21.239z"/></svg>